<svg xmlns="http://www.w3.org/2000/svg" viewBox="0 0 64 64" fill="none">
  <path d="M28.5 18 L2 11 L2 25 Z" fill="#F5B83D" opacity="0.45"/>
  <path d="M35.5 18 L62 11 L62 25 Z" fill="#F5B83D" opacity="0.45"/>
  <path d="M32 60 C32 60 14 41 14 27 A18 18 0 0 1 50 27 C50 41 32 60 32 60 Z" fill="#F5B83D"/>
  <path d="M27.5 15 L32 11 L36.5 15 Z" fill="#0E1620"/>
  <rect x="28.5" y="15" width="7" height="6" rx="1" fill="#0E1620"/>
  <rect x="30" y="16.3" width="4" height="3.4" rx="0.6" fill="#FFF1CC"/>
  <rect x="27" y="21" width="10" height="2" rx="0.5" fill="#0E1620"/>
  <path d="M29.3 23 L34.7 23 L37 40 L27 40 Z" fill="#0E1620"/>
  <path d="M28.6 29 L35.4 29 L35.8 32 L28.2 32 Z" fill="#F5B83D"/>
</svg>
